{"title":"CKY Documentary -  [r3mnants][DVDR][ENG][NTSC][AVI]","uid":4438607,"size":471255040,"categoryP":"video","categoryS":"movies","magnet":"?xt=urn:btih:08c183a081338c7af8ddb9884375d9aeff3d46b9&amp;dn=CKY+Documentary+-++%5Br3mnants%5D%5BDVDR%5D%5BENG%5D%5BNTSC%5D%5BAVI%5D&amp;tr=udp%3A%2F%2Ftracker.openbittorrent.com%3A80&amp;tr=udp%3A%2F%2Fopen.demonii.com%3A1337&amp;tr=udp%3A%2F%2Ftracker.coppersurfer.tk%3A6969&amp;tr=udp%3A%2F%2Fexodus.desync.com%3A6969","seeders":2,"leechers":0,"uploader":"r3mnants","files":1,"time":1223691171,"description":"RiPp3R: r3mnants\n\nFor Die hard fans ONLY!!!!!!\n\nImDb: http://www.imdb.com/title/tt0363496/\n\nInFo HaSh: 08C183A081338C7AF8DDB9884375D9AEFF3D46B9\n\nTrAcKeRs: \n &lt;a href=&quot;\nhttp://tpb.tracker.thepiratebay.se:80/announce&quot; rel=&quot;nofollow&quot; target=&quot;_NEW&quot;&gt;\nhttp://tpb.tracker.thepiratebay.se:80/announce&lt;/a&gt;\n &lt;a href=&quot;\nhttp://vip.tracker.thepiratebay.se:80/announce&quot; rel=&quot;nofollow&quot; target=&quot;_NEW&quot;&gt;\nhttp://vip.tracker.thepiratebay.se:80/announce&lt;/a&gt;\n &lt;a href=&quot;\nhttp://btfans.3322.org:8080/announce&quot; rel=&quot;nofollow&quot; target=&quot;_NEW&quot;&gt;\nhttp://btfans.3322.org:8080/announce&lt;/a&gt;\n &lt;a href=&quot;\nhttp://tracker.bittorrent.am/announce&quot; rel=&quot;nofollow&quot; target=&quot;_NEW&quot;&gt;\nhttp://tracker.bittorrent.am/announce&lt;/a&gt;\n &lt;a href=&quot;\nhttp://denis.stalker.h3q.com:6969/announce.php&quot; rel=&quot;nofollow&quot; target=&quot;_NEW&quot;&gt;\nhttp://denis.stalker.h3q.com:6969/announce.php&lt;/a&gt;\n &lt;a href=&quot;\nhttp://tk2.greedland.net:7070/announce.php&quot; rel=&quot;nofollow&quot; target=&quot;_NEW&quot;&gt;\nhttp://tk2.greedland.net:7070/announce.php&lt;/a&gt;\n &lt;a href=&quot;\nhttp://vtv.tracker.prq.to:80/announce&quot; rel=&quot;nofollow&quot; target=&quot;_NEW&quot;&gt;\nhttp://vtv.tracker.prq.to:80/announce&lt;/a&gt;\n &lt;a href=&quot;\nhttp://open.tracker.thepiratebay.se/announce&quot; rel=&quot;nofollow&quot; target=&quot;_NEW&quot;&gt;\nhttp://open.tracker.thepiratebay.se/announce&lt;/a&gt;\n &lt;a href=&quot;\nhttp://open.tracker.thepiratebay.se:80/announce&quot; rel=&quot;nofollow&quot; target=&quot;_NEW&quot;&gt;\nhttp://open.tracker.thepiratebay.se:80/announce&lt;/a&gt;\n &lt;a href=&quot;\nhttp://77.247.176.153:80/announce&quot; rel=&quot;nofollow&quot; target=&quot;_NEW&quot;&gt;\nhttp://77.247.176.153:80/announce&lt;/a&gt;\n\n\nMovie info:\n\nFormat                           : AVI\nFormat/Info                      : Audio Video Interleave\nFile size                        : 449 MiB\nDuration                         : 41mn 24s\nOverall bit rate                 : 1 517 Kbps\nWriting application              : VirtualDubMod 1.5.4.1 (build 2178/release)\nWriting library                  : VirtualDubMod build 2178/release\n\nVideo\nFormat                           : MPEG-4 Visual\nFormat profile                   : Streaming Video@L1\nFormat settings, BVOP            : Yes\nFormat settings, QPel            : No\nFormat settings, GMC             : No warppoints\nFormat settings, Matrix          : Custom\nCodec ID                         : XVID\nCodec ID/Hint                    : XviD\nDuration                         : 41mn 24s\nBit rate                         : 1 387 Kbps\nWidth                            : 480 pixels\nHeight                           : 368 pixels\nDisplay aspect ratio             : 4/3\nFrame rate                       : 29.970 fps\nResolution                       : 24 bits\nColorimetry                      : 4:2:0\nScan type                        : Progressive\nBits/(Pixel*Frame)               : 0.262\nStream size                      : 411 MiB (91%)\nWriting library                  : XviD 1.1.2 (UTC 2006-11-01)\n\nAudio\nFormat                           : MPEG Audio\nFormat version                   : Version 1\nFormat profile                   : Layer 3\nCodec ID                         : 55\nCodec ID/Hint                    : MP3\nDuration                         : 41mn 24s\nBit rate mode                    : Variable\nBit rate                         : 116 Kbps\nMinimum bit rate                 : 128 Kbps\nChannel(s)                       : 2 channels\nSampling rate                    : 48.0 KHz\nResolution                       : 16 bits\nStream size                      : 34.5 MiB (8%)\nAlignment                        : Aligned on interleaves\nInterleave, duration             : 24 ms (0.72 video frame)\nInterleave, preload duration     : 555 ms\nWriting library                  : LAME3.97 \nEncoding settings                : ABR","torrent":{"xt":"urn:btih:08c183a081338c7af8ddb9884375d9aeff3d46b9","amp;dn":"CKY+Documentary+-++%5Br3mnants%5D%5BDVDR%5D%5BENG%5D%5BNTSC%5D%5BAVI%5D","amp;tr":["udp%3A%2F%2Ftracker.openbittorrent.com%3A80","udp%3A%2F%2Fopen.demonii.com%3A1337","udp%3A%2F%2Ftracker.coppersurfer.tk%3A6969","udp%3A%2F%2Fexodus.desync.com%3A6969"],"infoHash":"08c183a081338c7af8ddb9884375d9aeff3d46b9","infoHashBuffer":{"type":"Buffer","data":[8,193,131,160,129,51,140,122,248,221,185,136,67,117,217,174,255,61,70,185]},"announce":[],"urlList":[]}}